<svg xmlns="http://www.w3.org/2000/svg" aria-hidden="true" style="position:absolute;width:0;height:0;overflow:hidden">
  <defs>
    <symbol id="icon-ikona-min" viewBox="0 0 32 32">
      <path d="M19.627.668c-.484.185-.981.811-1.081 1.38-.043.313-.213.853-.37 1.18s-.299.853-.313 1.18c-.028.327-.114.64-.199.697-.185.114-.427 1.095-.412 1.692 0 .27-.057.526-.142.569-.199.128-.512 1.266-.398 1.451.043.071-.085.768-.299 1.536l-.384 1.408-.37-.185a1.871 1.871 0 0 0-.782-.199c-.299 0-.555-.142-.853-.469-.711-.782-1.28-.796-2.688-.1-1.38.697-2.105 1.223-2.204 1.593-.057.256-.085.256-.327.028-.142-.128-.356-.54-.484-.91-.612-1.82-2.645-2.532-4.153-1.436-1.209.882-1.451 2.603-.526 3.812.484.64 1.01.882 2.29 1.038.74.1 1.266.256 1.607.484l.512.341-.057.924c-.057.811 0 1.067.356 1.849.242.484.64 1.138.896 1.436.27.299.612.882.782 1.28.74 1.806 2.83 4.608 3.655 4.878.754.242 1.564-.014 2.318-.74l.626-.612.896.213c.91.228 1.394.512 1.394.825 0 .1.299.455.683.811 1.138 1.067 2.631 1.237 3.968.455 1.109-.654 1.18-.839 3.115-8.462.981-3.868 1.863-7.125 1.963-7.239.228-.256.711-2.204.683-2.674-.014-.185.1-.868.27-1.493.156-.64.313-1.294.341-1.451.014-.156.085-.412.156-.569s.128-.555.128-.882c0-1.124-.128-1.18-5.419-2.546C19.998.538 19.984.538 19.628.666zm1.408.64c.654.142.725.199.725.54 0 .213.1.469.213.569.228.185 4.352 1.266 4.864 1.28.185 0 .412-.142.54-.341.228-.341.228-.341 1.038-.128.967.256 1.308.526 1.308 1.038 0 .37-4.437 17.991-4.665 18.532-.085.213-.156.171-.441-.299-.512-.825-1.138-1.18-2.219-1.28-1.977-.156-3.755 1.237-3.826 2.987-.014.398-.071.526-.228.469-.114-.028-.526-.128-.91-.228-.683-.171-.683-.171-.597-.668.043-.284.199-.64.356-.782.27-.284.284-.284.569.199.171.27.299.569.299.654 0 .37.228.156.469-.441.299-.74 1.422-1.835 2.219-2.19l.555-.256-.91-.256c-.498-.142-.91-.327-.91-.398 0-.085 1.28-2.034 1.664-2.532.028-.028.128.028.199.142.128.171.128.156.057-.071a7.239 7.239 0 0 1-.213-.782c-.213-1.038-.498-1.778-.74-1.963-.142-.1-.213-.256-.171-.341.071-.1.028-.114-.071-.043-.128.071-.1.185.114.412.484.512.341.54-.341.071a3.127 3.127 0 0 1-.981-1.095c-.441-.853-.697-1.081-1.678-1.451-.455-.171-.825-.384-.825-.469 0-.1.597-2.489 1.323-5.319.853-3.342 1.422-5.248 1.593-5.447.299-.327.612-.356 1.621-.114zM6.372 10.496c.028.1.156.171.27.171.242 0 .91.654.796.768-.043.028-.014.156.043.256.156.256.185 1.109.028 1.195-.057.043-.114.199-.114.356 0 .142-.1.27-.213.27-.128 0-.256.1-.299.213a.403.403 0 0 1-.327.213c-.142 0-.299.043-.341.085-.185.199-1.081.156-1.166-.057a.22.22 0 0 0-.284-.128c-.114.057-.228-.028-.284-.199-.057-.142-.185-.27-.299-.27s-.199-.142-.199-.341c0-.199-.071-.398-.142-.441-.085-.057-.1-.171-.043-.256.057-.1.085-.27.071-.412-.028-.128.028-.27.114-.327.071-.043.142-.213.142-.37 0-.142.085-.27.199-.27s.228-.1.284-.213c.043-.114.199-.213.356-.213s.313-.043.341-.114c.114-.156 1.01-.085 1.067.085zm7.182 1.081c.356.37.612.498 1.152.583.512.071.811.213 1.152.569.27.256.796.569 1.195.711.768.256 1.081.555 1.479 1.436.185.398.455.668.953.939.569.313.725.498.868.953.199.668.27.54-1.692 3.172-.768 1.038-1.451 1.82-1.579 1.82a4.556 4.556 0 0 1-.796-.213c-.299-.114-.583-.171-.626-.142-.028.043 0 .071.071.071s.284.142.484.299l.356.284-.356-.1c-.199-.043-.583-.256-.853-.455l-.498-.384.327.54c.171.299.313.583.313.626 0 .142-.427-.27-.74-.697l-.299-.427.64-.654c1.052-1.095 2.091-2.432 2.19-2.802.043-.199.242-.398.455-.484.37-.128.37-.128.057-.142-.583-.028-1.109.384-2.29 1.764-.654.754-1.266 1.351-1.408 1.351a4.656 4.656 0 0 1-.811-.213c-.74-.27-.782-.256-.37.071.398.341.299.37-.27.071-.37-.199-.412-.199-.341 0 .114.299-.185.27-.356-.028-.242-.441.228-1.237 1.892-3.243.512-.612.939-1.195.939-1.294 0-.085.142-.341.313-.569l.313-.398-.626.37c-.384.213-1.152.967-1.892 1.849-.683.796-1.323 1.465-1.422 1.451s-.327-.057-.526-.114c-.341-.1-.341-.085-.085.114.384.313.085.284-.341-.014l-.356-.242.256.37c.128.213.242.427.242.484 0 .142-.569-.398-.725-.683-.185-.356.356-1.365 1.479-2.759 1.038-1.294 1.394-1.892 1.365-2.361l-.028-.327-.057.327c-.028.171-.228.412-.441.512-.427.228-1.337 1.152-1.948 1.977-.299.412-.441.498-.583.37-.284-.228-.512 0-.455.455.085.526.028.512-.242-.014-.142-.256-.185-.569-.128-.754.114-.412 1.01-1.906 1.436-2.432.185-.228.299-.441.256-.484-.043-.057-.142 0-.213.114-.085.114-.142.142-.142.071 0-.085-.1-.014-.213.128-.213.284-.213.284-.213-.014 0-.156.128-.398.27-.526.441-.398 2.332-1.351 2.688-1.365.185 0 .512.199.782.484zm.583 10.539c.612.683.953.953 1.38 1.067.626.171.697.441.356 1.124-.242.455-.654.839-.654.612 0-.085.071-.199.142-.242.085-.043.142-.171.142-.256 0-.1-.114-.028-.256.128-.612.768-1.436.825-2.048.156-.526-.54-1.394-1.82-1.394-2.02 0-.071.156.1.356.398.199.284.469.526.612.512.185 0 .171-.043-.071-.156-.171-.085-.441-.398-.597-.711-.171-.341-.299-.484-.356-.37-.043.1-.043.028 0-.171.114-.498.711-.996 1.18-.996.327 0 .583.199 1.209.924zm8.732.071c.156 0 .327.114.384.27a.6.6 0 0 0 .356.341c.171.043.284.199.284.37s.085.341.199.384c.171.071.185.156.057.427-.114.242-.114.384.028.555s.128.228-.057.299c-.128.043-.228.242-.228.427 0 .654-.498.711-2.304.27-2.005-.498-2.133-.555-2.091-1.038.028-.213 0-.469-.071-.569-.057-.1-.014-.199.114-.256.128-.043.228-.242.228-.412 0-.199.114-.37.27-.427a.6.6 0 0 0 .341-.356.376.376 0 0 1 .356-.284c.171 0 .341-.071.384-.156.057-.085.27-.1.498-.057.242.057.441.028.512-.085.071-.128.142-.114.27.057a.64.64 0 0 0 .469.242z"/>
    </symbol>
    <symbol id="icon-tiktok" viewBox="0 0 32 32">
      <path d="M29 0c1.65 0 3 1.35 3 3v26c0 1.65-1.35 3-3 3H3c-1.65 0-3-1.35-3-3V3c0-1.65 1.35-3 3-3h26zm-7.111 10.231a4.618 4.618 0 0 1-2.098-3.86H16.48l-.005 13.269a2.784 2.784 0 0 1-2.778 2.678 2.784 2.784 0 0 1-2.783-2.783 2.786 2.786 0 0 1 2.783-2.783c.286 0 .561.047.821.128V13.5a6.01 6.01 0 0 0-.821-.06 6.101 6.101 0 0 0-6.094 6.094 6.089 6.089 0 0 0 2.602 4.989 6.058 6.058 0 0 0 3.492 1.104 6.101 6.101 0 0 0 6.094-6.094v-6.729a7.876 7.876 0 0 0 4.606 1.481v-3.311a4.578 4.578 0 0 1-2.508-.746z"/>
    </symbol>
    <symbol id="icon-linkedin" viewBox="0 0 32 32">
      <path d="M31.992 32v-.001H32V20.263c0-5.741-1.236-10.164-7.948-10.164-3.227 0-5.392 1.771-6.276 3.449h-.093v-2.913h-6.364v21.364h6.627V21.42c0-2.785.528-5.479 3.977-5.479 3.399 0 3.449 3.179 3.449 5.657v10.401h6.62zM.528 10.636h6.635V32H.528V10.636zM3.843 0C1.722 0 0 1.721 0 3.843s1.721 3.879 3.843 3.879c2.121 0 3.843-1.757 3.843-3.879A3.846 3.846 0 0 0 3.843 0z"/>
    </symbol>
    <symbol id="icon-facebook" viewBox="0 0 32 32">
      <path d="M21.329 5.313h2.921V.225C23.746.156 22.013 0 19.994 0c-4.212 0-7.097 2.649-7.097 7.519V12H8.249v5.688h4.648V32h5.699V17.689h4.46l.708-5.688h-5.169V8.082c.001-1.644.444-2.769 2.735-2.769z"/>
    </symbol>
    <symbol id="icon-instagram" viewBox="0 0 32 32">
      <path d="M31.969 9.408c-.075-1.7-.35-2.869-.744-3.882a7.803 7.803 0 0 0-1.85-2.838A7.867 7.867 0 0 0 26.543.844C25.524.45 24.361.175 22.661.1 20.948.019 20.404 0 16.06 0s-4.888.019-6.595.094c-1.7.075-2.869.35-3.882.744a7.803 7.803 0 0 0-2.838 1.85A7.867 7.867 0 0 0 .901 5.52C.507 6.539.232 7.702.157 9.402c-.081 1.713-.1 2.257-.1 6.601s.019 4.888.094 6.595c.075 1.7.35 2.869.744 3.882a7.895 7.895 0 0 0 1.85 2.838 7.867 7.867 0 0 0 2.832 1.844c1.019.394 2.182.669 3.882.744 1.706.075 2.25.094 6.595.094s4.888-.019 6.595-.094c1.7-.075 2.869-.35 3.882-.744a8.181 8.181 0 0 0 4.682-4.682c.394-1.019.669-2.182.744-3.882.075-1.707.094-2.25.094-6.595s-.006-4.888-.081-6.595zm-2.882 13.065c-.069 1.563-.331 2.407-.55 2.969a5.31 5.31 0 0 1-3.038 3.038c-.563.219-1.413.481-2.969.55-1.688.075-2.194.094-6.464.094s-4.782-.019-6.464-.094c-1.563-.069-2.407-.331-2.969-.55a4.926 4.926 0 0 1-1.838-1.194 4.974 4.974 0 0 1-1.194-1.838c-.219-.563-.481-1.413-.55-2.969-.075-1.688-.094-2.194-.094-6.464s.019-4.782.094-6.464c.069-1.563.331-2.407.55-2.969a4.868 4.868 0 0 1 1.2-1.838A4.974 4.974 0 0 1 6.639 3.55c.563-.219 1.413-.481 2.969-.55 1.688-.075 2.194-.094 6.464-.094 4.276 0 4.782.019 6.464.094 1.563.069 2.407.331 2.969.55a4.914 4.914 0 0 1 1.838 1.194 4.974 4.974 0 0 1 1.194 1.838c.219.563.481 1.413.55 2.969.075 1.688.094 2.194.094 6.464s-.019 4.77-.094 6.458z"/>
      <path d="M16.059 7.783c-4.538 0-8.22 3.682-8.22 8.22s3.682 8.22 8.22 8.22 8.22-3.682 8.22-8.22-3.682-8.22-8.22-8.22zm0 13.552a5.333 5.333 0 0 1 0-10.664 5.333 5.333 0 0 1 0 10.664zM26.524 7.458a1.919 1.919 0 1 1-3.838 0 1.919 1.919 0 0 1 3.838 0z"/>
    </symbol>
  </defs>
</svg>
